<svg width="189" height="155" viewBox="0 0 189 155" fill="none" xmlns="http://www.w3.org/2000/svg">
<g clip-path="url(#clip0_1_3)">
<path d="M141.68 57.9834H161.357L144.617 76.1266L127.933 94.3072L111.248 76.1266L94.564 57.9834H114.596C114.596 42.6052 108.487 27.8569 97.6134 16.9829C86.7394 6.10895 71.9911 0 56.613 0L0.5 0V154.928H45.3904V104.744H25.8444L42.5099 86.5823L59.1942 68.4017L75.8784 86.601L92.5627 104.744H72.5677C72.5653 111.334 73.861 117.859 76.381 123.947C78.9009 130.036 82.5956 135.568 87.2541 140.228C91.9126 144.889 97.4436 148.585 103.531 151.108C109.619 153.63 116.143 154.928 122.733 154.928H188.497V0H141.736L141.68 57.9834Z" fill="#8F12FD"/>
</g>
<defs>
<clipPath id="clip0_1_3">
<rect width="187.997" height="154.928" fill="white" transform="translate(0.5)"/>
</clipPath>
</defs>
</svg>
