<svg width="278" height="225" viewBox="0 0 278 225" fill="none" xmlns="http://www.w3.org/2000/svg">
<g clip-path="url(#clip0_1_13)">
<path d="M186.68 57.9834H206.357L189.617 76.1266L172.933 94.3072L156.248 76.1266L139.564 57.9834H159.596C159.596 42.6052 153.487 27.8569 142.613 16.9829C131.739 6.10895 116.991 0 101.613 0L45.5 0V154.928H90.3904V104.744H70.8444L87.5099 86.5823L104.194 68.4017L120.878 86.601L137.563 104.744H117.568C117.565 111.334 118.861 117.859 121.381 123.947C123.901 130.036 127.596 135.568 132.254 140.228C136.913 144.889 142.444 148.585 148.531 151.108C154.619 153.63 161.143 154.928 167.733 154.928H233.497V0H186.736L186.68 57.9834Z" fill="#8F12FD"/>
</g>
<g clip-path="url(#clip1_1_13)">
<path d="M5.94 214.36H0V183.56H5.94L20.1 204.81V183.56H26.04V214.36H20.1L5.94 193.15V214.36ZM42.59 214.89C40.3567 214.89 38.3833 214.413 36.67 213.46C34.9567 212.507 33.6233 211.17 32.67 209.45C31.7167 207.737 31.24 205.75 31.24 203.49C31.24 201.17 31.7067 199.123 32.64 197.35C33.58 195.577 34.91 194.183 36.63 193.17C38.3433 192.157 40.33 191.65 42.59 191.65C44.79 191.65 46.71 192.137 48.35 193.11C49.9967 194.077 51.2733 195.38 52.18 197.02C53.0867 198.667 53.54 200.53 53.54 202.61C53.54 202.903 53.54 203.233 53.54 203.6C53.54 203.967 53.5133 204.34 53.46 204.72H35.46V201.11H47.56C47.4733 199.677 46.9667 198.55 46.04 197.73C45.12 196.903 43.97 196.49 42.59 196.49C41.59 196.49 40.6667 196.72 39.82 197.18C38.9667 197.633 38.2967 198.33 37.81 199.27C37.33 200.203 37.09 201.39 37.09 202.83V204.11C37.09 205.31 37.3167 206.357 37.77 207.25C38.2233 208.143 38.86 208.833 39.68 209.32C40.5067 209.807 41.46 210.05 42.54 210.05C43.6267 210.05 44.53 209.813 45.25 209.34C45.97 208.873 46.5067 208.273 46.86 207.54H52.93C52.5167 208.92 51.8267 210.167 50.86 211.28C49.8933 212.393 48.7067 213.273 47.3 213.92C45.8867 214.567 44.3167 214.89 42.59 214.89ZM66.7 214.89C64.9133 214.89 63.38 214.513 62.1 213.76C60.8267 213.013 59.8533 211.913 59.18 210.46C58.5 209.013 58.16 207.217 58.16 205.07V192.18H64.1V204.46C64.1 206.247 64.4767 207.597 65.23 208.51C65.9767 209.417 67.1267 209.87 68.68 209.87C69.68 209.87 70.56 209.643 71.32 209.19C72.08 208.737 72.69 208.077 73.15 207.21C73.6033 206.343 73.83 205.28 73.83 204.02V192.18H79.72V214.36H74.53L74.05 210.75C73.4033 212.01 72.45 213.013 71.19 213.76C69.93 214.513 68.4333 214.89 66.7 214.89ZM99.52 214.36H95.52C93.9667 214.36 92.61 214.117 91.45 213.63C90.29 213.15 89.3867 212.343 88.74 211.21C88.1 210.083 87.78 208.537 87.78 206.57V197.15H83.99V192.18H87.78L88.44 186.15H93.72V192.18H99.57V197.15H93.72V206.66C93.72 207.653 93.94 208.343 94.38 208.73C94.82 209.11 95.5667 209.3 96.62 209.3H99.52V214.36ZM110.52 214.36H104.58V192.18H109.86L110.44 196.27C110.967 195.303 111.633 194.483 112.44 193.81C113.247 193.137 114.17 192.61 115.21 192.23C116.25 191.843 117.4 191.65 118.66 191.65V197.95H116.64C115.76 197.95 114.947 198.05 114.2 198.25C113.453 198.457 112.8 198.787 112.24 199.24C111.68 199.7 111.253 200.323 110.96 201.11C110.667 201.903 110.52 202.903 110.52 204.11V214.36ZM130.06 214.89C128.213 214.89 126.687 214.587 125.48 213.98C124.28 213.38 123.393 212.573 122.82 211.56C122.247 210.553 121.96 209.433 121.96 208.2C121.96 206.847 122.307 205.657 123 204.63C123.687 203.603 124.727 202.797 126.12 202.21C127.513 201.623 129.267 201.33 131.38 201.33H136.88C136.88 200.25 136.733 199.35 136.44 198.63C136.147 197.91 135.693 197.373 135.08 197.02C134.46 196.667 133.637 196.49 132.61 196.49C131.497 196.49 130.55 196.733 129.77 197.22C128.997 197.707 128.52 198.447 128.34 199.44H122.58C122.727 197.86 123.247 196.49 124.14 195.33C125.033 194.17 126.223 193.267 127.71 192.62C129.19 191.973 130.84 191.65 132.66 191.65C134.74 191.65 136.543 192.003 138.07 192.71C139.597 193.417 140.77 194.43 141.59 195.75C142.41 197.07 142.82 198.697 142.82 200.63V214.36H137.8L137.14 210.97C136.82 211.557 136.44 212.083 136 212.55C135.56 213.023 135.047 213.437 134.46 213.79C133.873 214.137 133.213 214.407 132.48 214.6C131.747 214.793 130.94 214.89 130.06 214.89ZM131.47 210.31C132.23 210.31 132.91 210.17 133.51 209.89C134.117 209.61 134.64 209.23 135.08 208.75C135.52 208.263 135.863 207.707 136.11 207.08C136.357 206.447 136.527 205.763 136.62 205.03V204.99H132.08C131.173 204.99 130.433 205.1 129.86 205.32C129.287 205.54 128.87 205.853 128.61 206.26C128.343 206.673 128.21 207.143 128.21 207.67C128.21 208.257 128.343 208.74 128.61 209.12C128.87 209.5 129.25 209.793 129.75 210C130.25 210.207 130.823 210.31 131.47 210.31ZM154.3 214.36H148.36V182.68H154.3V214.36ZM174.76 214.36H168.52L179.78 183.56H186.51L197.73 214.36H191.44L183.12 190.33L174.76 214.36ZM192.28 207.36H173.49L175.07 202.74H190.74L192.28 207.36ZM207.59 224.04H201.65V192.18H206.93L207.59 195.26C208.057 194.613 208.613 194.02 209.26 193.48C209.907 192.94 210.677 192.5 211.57 192.16C212.463 191.82 213.513 191.65 214.72 191.65C216.8 191.65 218.633 192.163 220.22 193.19C221.8 194.217 223.053 195.603 223.98 197.35C224.9 199.097 225.36 201.083 225.36 203.31C225.36 205.543 224.893 207.533 223.96 209.28C223.02 211.02 221.757 212.39 220.17 213.39C218.59 214.39 216.787 214.89 214.76 214.89C213.12 214.89 211.703 214.587 210.51 213.98C209.323 213.38 208.35 212.553 207.59 211.5V224.04ZM213.35 209.69C214.523 209.69 215.557 209.427 216.45 208.9C217.35 208.373 218.047 207.627 218.54 206.66C219.04 205.693 219.29 204.577 219.29 203.31C219.29 202.05 219.04 200.93 218.54 199.95C218.047 198.963 217.35 198.2 216.45 197.66C215.557 197.12 214.523 196.85 213.35 196.85C212.21 196.85 211.19 197.12 210.29 197.66C209.397 198.2 208.693 198.957 208.18 199.93C207.667 200.897 207.41 202.01 207.41 203.27C207.41 204.53 207.667 205.653 208.18 206.64C208.693 207.62 209.397 208.373 210.29 208.9C211.19 209.427 212.21 209.69 213.35 209.69ZM236.41 224.04H230.47V192.18H235.75L236.41 195.26C236.877 194.613 237.433 194.02 238.08 193.48C238.727 192.94 239.497 192.5 240.39 192.16C241.283 191.82 242.333 191.65 243.54 191.65C245.62 191.65 247.453 192.163 249.04 193.19C250.62 194.217 251.873 195.603 252.8 197.35C253.72 199.097 254.18 201.083 254.18 203.31C254.18 205.543 253.713 207.533 252.78 209.28C251.84 211.02 250.577 212.39 248.99 213.39C247.41 214.39 245.607 214.89 243.58 214.89C241.94 214.89 240.523 214.587 239.33 213.98C238.143 213.38 237.17 212.553 236.41 211.5V224.04ZM242.17 209.69C243.343 209.69 244.377 209.427 245.27 208.9C246.17 208.373 246.867 207.627 247.36 206.66C247.86 205.693 248.11 204.577 248.11 203.31C248.11 202.05 247.86 200.93 247.36 199.95C246.867 198.963 246.17 198.2 245.27 197.66C244.377 197.12 243.343 196.85 242.17 196.85C241.03 196.85 240.01 197.12 239.11 197.66C238.217 198.2 237.513 198.957 237 199.93C236.487 200.897 236.23 202.01 236.23 203.27C236.23 204.53 236.487 205.653 237 206.64C237.513 207.62 238.217 208.373 239.11 208.9C240.01 209.427 241.03 209.69 242.17 209.69ZM268.35 214.89C266.33 214.89 264.57 214.567 263.07 213.92C261.577 213.273 260.403 212.377 259.55 211.23C258.703 210.09 258.22 208.8 258.1 207.36H264C264.147 207.92 264.393 208.427 264.74 208.88C265.093 209.333 265.563 209.693 266.15 209.96C266.737 210.22 267.44 210.35 268.26 210.35C269.053 210.35 269.7 210.24 270.2 210.02C270.7 209.8 271.073 209.5 271.32 209.12C271.573 208.74 271.7 208.343 271.7 207.93C271.7 207.317 271.523 206.84 271.17 206.5C270.817 206.167 270.303 205.897 269.63 205.69C268.957 205.483 268.133 205.277 267.16 205.07C266.107 204.87 265.073 204.613 264.06 204.3C263.047 203.993 262.147 203.607 261.36 203.14C260.567 202.667 259.933 202.063 259.46 201.33C258.993 200.597 258.76 199.69 258.76 198.61C258.76 197.29 259.113 196.107 259.82 195.06C260.52 194.02 261.547 193.193 262.9 192.58C264.247 191.96 265.873 191.65 267.78 191.65C270.447 191.65 272.56 192.253 274.12 193.46C275.673 194.66 276.597 196.317 276.89 198.43H271.3C271.127 197.757 270.737 197.22 270.13 196.82C269.53 196.427 268.733 196.23 267.74 196.23C266.68 196.23 265.873 196.42 265.32 196.8C264.76 197.18 264.48 197.68 264.48 198.3C264.48 198.707 264.663 199.073 265.03 199.4C265.397 199.72 265.917 199.99 266.59 200.21C267.263 200.43 268.087 200.643 269.06 200.85C270.76 201.203 272.253 201.607 273.54 202.06C274.833 202.513 275.847 203.16 276.58 204C277.313 204.833 277.68 206.043 277.68 207.63C277.68 209.037 277.3 210.29 276.54 211.39C275.773 212.49 274.693 213.347 273.3 213.96C271.907 214.58 270.257 214.89 268.35 214.89Z" fill="#8F12FD"/>
</g>
<defs>
<clipPath id="clip0_1_13">
<rect width="187.997" height="154.928" fill="white" transform="translate(45.5)"/>
</clipPath>
<clipPath id="clip1_1_13">
<rect width="277.68" height="41.36" fill="white" transform="translate(0 182.68)"/>
</clipPath>
</defs>
</svg>
