<svg width="278" height="225" viewBox="0 0 278 225" fill="none" xmlns="http://www.w3.org/2000/svg">
<g clip-path="url(#clip0_2_25)">
<path d="M186.02 57.9834H205.697L188.957 76.1266L172.272 94.3072L155.588 76.1266L138.904 57.9834H158.936C158.936 42.6052 152.827 27.8569 141.953 16.9829C131.079 6.10895 116.331 0 100.953 0L44.84 0V154.928H89.7303V104.744H70.1843L86.8499 86.5823L103.534 68.4017L120.218 86.601L136.903 104.744H116.908C116.905 111.334 118.201 117.859 120.721 123.947C123.241 130.036 126.936 135.568 131.594 140.228C136.253 144.889 141.784 148.585 147.871 151.108C153.959 153.63 160.483 154.928 167.073 154.928H232.837V0H186.076L186.02 57.9834Z" fill="white"/>
</g>
<g clip-path="url(#clip1_2_25)">
<path d="M5.94 214.68H0V183.88H5.94L20.1 205.13V183.88H26.04V214.68H20.1L5.94 193.47V214.68ZM42.59 215.21C40.3567 215.21 38.3833 214.733 36.67 213.78C34.9567 212.827 33.6233 211.49 32.67 209.77C31.7167 208.057 31.24 206.07 31.24 203.81C31.24 201.49 31.7067 199.443 32.64 197.67C33.58 195.897 34.91 194.503 36.63 193.49C38.3433 192.477 40.33 191.97 42.59 191.97C44.79 191.97 46.71 192.457 48.35 193.43C49.9967 194.397 51.2733 195.7 52.18 197.34C53.0867 198.987 53.54 200.85 53.54 202.93C53.54 203.223 53.54 203.553 53.54 203.92C53.54 204.287 53.5133 204.66 53.46 205.04H35.46V201.43H47.56C47.4733 199.997 46.9667 198.87 46.04 198.05C45.12 197.223 43.97 196.81 42.59 196.81C41.59 196.81 40.6667 197.04 39.82 197.5C38.9667 197.953 38.2967 198.65 37.81 199.59C37.33 200.523 37.09 201.71 37.09 203.15V204.43C37.09 205.63 37.3167 206.677 37.77 207.57C38.2233 208.463 38.86 209.153 39.68 209.64C40.5067 210.127 41.46 210.37 42.54 210.37C43.6267 210.37 44.53 210.133 45.25 209.66C45.97 209.193 46.5067 208.593 46.86 207.86H52.93C52.5167 209.24 51.8267 210.487 50.86 211.6C49.8933 212.713 48.7067 213.593 47.3 214.24C45.8867 214.887 44.3167 215.21 42.59 215.21ZM66.7 215.21C64.9133 215.21 63.38 214.833 62.1 214.08C60.8267 213.333 59.8533 212.233 59.18 210.78C58.5 209.333 58.16 207.537 58.16 205.39V192.5H64.1V204.78C64.1 206.567 64.4767 207.917 65.23 208.83C65.9767 209.737 67.1267 210.19 68.68 210.19C69.68 210.19 70.56 209.963 71.32 209.51C72.08 209.057 72.69 208.397 73.15 207.53C73.6033 206.663 73.83 205.6 73.83 204.34V192.5H79.72V214.68H74.53L74.05 211.07C73.4033 212.33 72.45 213.333 71.19 214.08C69.93 214.833 68.4333 215.21 66.7 215.21ZM99.52 214.68H95.52C93.9667 214.68 92.61 214.437 91.45 213.95C90.29 213.47 89.3867 212.663 88.74 211.53C88.1 210.403 87.78 208.857 87.78 206.89V197.47H83.99V192.5H87.78L88.44 186.47H93.72V192.5H99.57V197.47H93.72V206.98C93.72 207.973 93.94 208.663 94.38 209.05C94.82 209.43 95.5667 209.62 96.62 209.62H99.52V214.68ZM110.52 214.68H104.58V192.5H109.86L110.44 196.59C110.967 195.623 111.633 194.803 112.44 194.13C113.247 193.457 114.17 192.93 115.21 192.55C116.25 192.163 117.4 191.97 118.66 191.97V198.27H116.64C115.76 198.27 114.947 198.37 114.2 198.57C113.453 198.777 112.8 199.107 112.24 199.56C111.68 200.02 111.253 200.643 110.96 201.43C110.667 202.223 110.52 203.223 110.52 204.43V214.68ZM130.06 215.21C128.213 215.21 126.687 214.907 125.48 214.3C124.28 213.7 123.393 212.893 122.82 211.88C122.247 210.873 121.96 209.753 121.96 208.52C121.96 207.167 122.307 205.977 123 204.95C123.687 203.923 124.727 203.117 126.12 202.53C127.513 201.943 129.267 201.65 131.38 201.65H136.88C136.88 200.57 136.733 199.67 136.44 198.95C136.147 198.23 135.693 197.693 135.08 197.34C134.46 196.987 133.637 196.81 132.61 196.81C131.497 196.81 130.55 197.053 129.77 197.54C128.997 198.027 128.52 198.767 128.34 199.76H122.58C122.727 198.18 123.247 196.81 124.14 195.65C125.033 194.49 126.223 193.587 127.71 192.94C129.19 192.293 130.84 191.97 132.66 191.97C134.74 191.97 136.543 192.323 138.07 193.03C139.597 193.737 140.77 194.75 141.59 196.07C142.41 197.39 142.82 199.017 142.82 200.95V214.68H137.8L137.14 211.29C136.82 211.877 136.44 212.403 136 212.87C135.56 213.343 135.047 213.757 134.46 214.11C133.873 214.457 133.213 214.727 132.48 214.92C131.747 215.113 130.94 215.21 130.06 215.21ZM131.47 210.63C132.23 210.63 132.91 210.49 133.51 210.21C134.117 209.93 134.64 209.55 135.08 209.07C135.52 208.583 135.863 208.027 136.11 207.4C136.357 206.767 136.527 206.083 136.62 205.35V205.31H132.08C131.173 205.31 130.433 205.42 129.86 205.64C129.287 205.86 128.87 206.173 128.61 206.58C128.343 206.993 128.21 207.463 128.21 207.99C128.21 208.577 128.343 209.06 128.61 209.44C128.87 209.82 129.25 210.113 129.75 210.32C130.25 210.527 130.823 210.63 131.47 210.63ZM154.3 214.68H148.36V183H154.3V214.68ZM174.76 214.68H168.52L179.78 183.88H186.51L197.73 214.68H191.44L183.12 190.65L174.76 214.68ZM192.28 207.68H173.49L175.07 203.06H190.74L192.28 207.68ZM207.59 224.36H201.65V192.5H206.93L207.59 195.58C208.057 194.933 208.613 194.34 209.26 193.8C209.907 193.26 210.677 192.82 211.57 192.48C212.463 192.14 213.513 191.97 214.72 191.97C216.8 191.97 218.633 192.483 220.22 193.51C221.8 194.537 223.053 195.923 223.98 197.67C224.9 199.417 225.36 201.403 225.36 203.63C225.36 205.863 224.893 207.853 223.96 209.6C223.02 211.34 221.757 212.71 220.17 213.71C218.59 214.71 216.787 215.21 214.76 215.21C213.12 215.21 211.703 214.907 210.51 214.3C209.323 213.7 208.35 212.873 207.59 211.82V224.36ZM213.35 210.01C214.523 210.01 215.557 209.747 216.45 209.22C217.35 208.693 218.047 207.947 218.54 206.98C219.04 206.013 219.29 204.897 219.29 203.63C219.29 202.37 219.04 201.25 218.54 200.27C218.047 199.283 217.35 198.52 216.45 197.98C215.557 197.44 214.523 197.17 213.35 197.17C212.21 197.17 211.19 197.44 210.29 197.98C209.397 198.52 208.693 199.277 208.18 200.25C207.667 201.217 207.41 202.33 207.41 203.59C207.41 204.85 207.667 205.973 208.18 206.96C208.693 207.94 209.397 208.693 210.29 209.22C211.19 209.747 212.21 210.01 213.35 210.01ZM236.41 224.36H230.47V192.5H235.75L236.41 195.58C236.877 194.933 237.433 194.34 238.08 193.8C238.727 193.26 239.497 192.82 240.39 192.48C241.283 192.14 242.333 191.97 243.54 191.97C245.62 191.97 247.453 192.483 249.04 193.51C250.62 194.537 251.873 195.923 252.8 197.67C253.72 199.417 254.18 201.403 254.18 203.63C254.18 205.863 253.713 207.853 252.78 209.6C251.84 211.34 250.577 212.71 248.99 213.71C247.41 214.71 245.607 215.21 243.58 215.21C241.94 215.21 240.523 214.907 239.33 214.3C238.143 213.7 237.17 212.873 236.41 211.82V224.36ZM242.17 210.01C243.343 210.01 244.377 209.747 245.27 209.22C246.17 208.693 246.867 207.947 247.36 206.98C247.86 206.013 248.11 204.897 248.11 203.63C248.11 202.37 247.86 201.25 247.36 200.27C246.867 199.283 246.17 198.52 245.27 197.98C244.377 197.44 243.343 197.17 242.17 197.17C241.03 197.17 240.01 197.44 239.11 197.98C238.217 198.52 237.513 199.277 237 200.25C236.487 201.217 236.23 202.33 236.23 203.59C236.23 204.85 236.487 205.973 237 206.96C237.513 207.94 238.217 208.693 239.11 209.22C240.01 209.747 241.03 210.01 242.17 210.01ZM268.35 215.21C266.33 215.21 264.57 214.887 263.07 214.24C261.577 213.593 260.403 212.697 259.55 211.55C258.703 210.41 258.22 209.12 258.1 207.68H264C264.147 208.24 264.393 208.747 264.74 209.2C265.093 209.653 265.563 210.013 266.15 210.28C266.737 210.54 267.44 210.67 268.26 210.67C269.053 210.67 269.7 210.56 270.2 210.34C270.7 210.12 271.073 209.82 271.32 209.44C271.573 209.06 271.7 208.663 271.7 208.25C271.7 207.637 271.523 207.16 271.17 206.82C270.817 206.487 270.303 206.217 269.63 206.01C268.957 205.803 268.133 205.597 267.16 205.39C266.107 205.19 265.073 204.933 264.06 204.62C263.047 204.313 262.147 203.927 261.36 203.46C260.567 202.987 259.933 202.383 259.46 201.65C258.993 200.917 258.76 200.01 258.76 198.93C258.76 197.61 259.113 196.427 259.82 195.38C260.52 194.34 261.547 193.513 262.9 192.9C264.247 192.28 265.873 191.97 267.78 191.97C270.447 191.97 272.56 192.573 274.12 193.78C275.673 194.98 276.597 196.637 276.89 198.75H271.3C271.127 198.077 270.737 197.54 270.13 197.14C269.53 196.747 268.733 196.55 267.74 196.55C266.68 196.55 265.873 196.74 265.32 197.12C264.76 197.5 264.48 198 264.48 198.62C264.48 199.027 264.663 199.393 265.03 199.72C265.397 200.04 265.917 200.31 266.59 200.53C267.263 200.75 268.087 200.963 269.06 201.17C270.76 201.523 272.253 201.927 273.54 202.38C274.833 202.833 275.847 203.48 276.58 204.32C277.313 205.153 277.68 206.363 277.68 207.95C277.68 209.357 277.3 210.61 276.54 211.71C275.773 212.81 274.693 213.667 273.3 214.28C271.907 214.9 270.257 215.21 268.35 215.21Z" fill="white"/>
</g>
<defs>
<clipPath id="clip0_2_25">
<rect width="187.997" height="154.928" fill="white" transform="translate(44.84)"/>
</clipPath>
<clipPath id="clip1_2_25">
<rect width="277.68" height="41.36" fill="white" transform="translate(0 183)"/>
</clipPath>
</defs>
</svg>
